<?xml version="1.0" encoding="UTF-8" standalone="no"?>
<svg
   xmlns:dc="http://purl.org/dc/elements/1.1/"
   xmlns:cc="http://creativecommons.org/ns#"
   xmlns:rdf="http://www.w3.org/1999/02/22-rdf-syntax-ns#"
   xmlns:svg="http://www.w3.org/2000/svg"
   xmlns="http://www.w3.org/2000/svg"
   viewBox="0 0 474.66666 212"
   height="212"
   width="474.66666"
   xml:space="preserve"
   id="svg2"
   version="1.1"><metadata
     id="metadata8"><rdf:RDF><cc:Work
         rdf:about=""><dc:format>image/svg+xml</dc:format><dc:type
           rdf:resource="http://purl.org/dc/dcmitype/StillImage" /></cc:Work></rdf:RDF></metadata><defs
     id="defs6"><clipPath
       id="clipPath22"
       clipPathUnits="userSpaceOnUse"><path
         id="path20"
         d="M 0,159 H 356 V 0 H 0 Z" /></clipPath></defs><g
     transform="matrix(1.3333333,0,0,-1.3333333,0,212)"
     id="g10"><g
       transform="translate(105.627,96.4092)"
       id="g12"><path
         id="path14"
         style="fill:#176fc1;fill-opacity:1;fill-rule:nonzero;stroke:none"
         d="m 0,0 h 20.472 l 0.668,-19.745 h 0.258 L 29.906,0 h 20.42 L 43.001,-36.09 H 30.628 L 36.4,-7.731 H 36.089 L 23.203,-36.09 H 11.708 L 10.569,-7.731 H 10.207 L 4.435,-36.09 H -7.321 Z" /></g><g
       id="g16"><g
         clip-path="url(#clipPath22)"
         id="g18"><g
           transform="translate(184.2988,73.7266)"
           id="g24"><path
             id="path26"
             style="fill:#176fc1;fill-opacity:1;fill-rule:nonzero;stroke:none"
             d="m 0,0 h 0.825 c 3.867,0 6.033,4.226 6.033,7.368 0,2.321 -1.339,4.075 -3.764,4.075 H 2.321 Z m -10.261,11.443 h -0.771 c -3.662,0 -6.135,-3.866 -6.135,-7.27 0,-2.11 1.289,-4.173 3.765,-4.173 h 0.823 z m -5.771,-25.469 1.135,5.781 h -2.477 c -9.488,0 -12.943,5.354 -12.943,10.717 0,7.941 6.395,17.221 18.976,17.221 h 2.166 l 1.08,5.412 H 5.729 L 4.646,19.693 H 6.81 c 5.05,0 13.195,-1.185 13.195,-10.776 0,-8.402 -6.028,-17.162 -18.354,-17.162 h -2.733 l -1.134,-5.781 h -13.816" /></g><g
           transform="translate(245.4639,96.4092)"
           id="g28"><path
             id="path30"
             style="fill:#176fc1;fill-opacity:1;fill-rule:nonzero;stroke:none"
             d="m 0,0 -2.166,-10.672 h -12.17 l -5.152,-25.418 h -13.818 l 5.154,25.418 h -12.17 L -38.156,0 Z" /></g><g
           transform="translate(262.375,96.4092)"
           id="g32"><path
             id="path34"
             style="fill:#176fc1;fill-opacity:1;fill-rule:nonzero;stroke:none"
             d="m 0,0 -4.178,-20.62 h 0.207 L 9.335,0 h 16.137 l -7.32,-36.09 H 4.332 l 4.123,20.211 H 8.249 L -4.999,-36.09 H -21.137 L -13.819,0 Z" /></g><g
           transform="translate(298.5742,46.7188)"
           id="g36"><path
             id="path38"
             style="fill:#176fc1;fill-opacity:1;fill-rule:nonzero;stroke:none"
             d="M 0,0 1.963,10.23 21.298,4.414 Z" /></g><g
           transform="translate(293.9922,54.6172)"
           id="g40"><path
             id="path42"
             style="fill:#176fc1;fill-opacity:1;fill-rule:nonzero;stroke:none"
             d="m 0,0 h -199.764 c -3.69,0 -5.295,-4.093 -6.844,-8.052 -0.542,-1.38 -1.392,-3.548 -2.043,-4.442 -1.179,1.176 -2.045,6.795 -2.383,9.01 l -0.188,1.223 c -1.189,7.601 -2.259,15.625 -3.296,23.381 -4.529,33.916 -6.677,45.791 -12.981,45.91 -7.906,0.146 -10.716,-13.858 -19.054,-55.423 l -1.092,-5.431 C -248.881,0 -251.698,0 -252.9,0 h -3.753 l -0.931,-5.348 h 4.684 c 3.136,0 8.673,1.362 10.501,10.473 l 1.088,5.432 c 5.143,25.625 10.002,49.797 13.434,51.008 2.982,-3.176 5.906,-25.045 8.056,-41.152 1.043,-7.785 2.116,-15.836 3.318,-23.5 l 0.182,-1.201 c 0.934,-6.133 2.094,-13.764 7.848,-13.764 3.69,0 5.295,4.093 6.845,8.051 0.592,1.513 1.557,3.964 2.225,4.653 H -0.928 L 0,0" /></g><g
           transform="translate(98.7979,44.0732)"
           id="g44"><path
             id="path46"
             style="fill:#176fc1;fill-opacity:1;fill-rule:nonzero;stroke:none"
             d="M 0,0 0.563,-3.385 0.578,-3.394 2.232,0 H 3.963 L 3.098,-5.301 H 1.915 l 0.681,4.127 H 2.58 L 0.617,-5.301 h -0.795 l -0.642,4.118 -0.016,0.009 -0.672,-4.127 H -2.48 L -1.615,0 Z" /></g><g
           transform="translate(104.5068,40.0635)"
           id="g48"><path
             id="path50"
             style="fill:#176fc1;fill-opacity:1;fill-rule:nonzero;stroke:none"
             d="m 0,0 c 0.17,-0.302 0.41,-0.427 0.742,-0.427 0.293,0 0.549,0.095 0.781,0.396 0.363,0.464 0.54,1.414 0.54,2.002 0,0.216 -0.031,0.553 -0.17,0.787 C 1.785,2.942 1.553,3.159 1.152,3.159 0.819,3.159 0.565,3.011 0.371,2.765 0.008,2.302 -0.17,1.351 -0.17,0.758 -0.17,0.524 -0.138,0.245 0,0 M 2.597,3.661 C 2.944,3.375 3.346,2.797 3.346,1.829 c 0,-0.795 -0.285,-1.69 -0.664,-2.2 -0.256,-0.341 -0.881,-0.996 -2.064,-0.996 -0.555,0 -1.057,0.145 -1.483,0.586 -0.434,0.449 -0.587,1.005 -0.587,1.662 0,0.711 0.146,1.729 0.903,2.487 0.549,0.547 1.098,0.72 1.778,0.72 0.394,0 0.904,-0.039 1.368,-0.427" /></g><g
           transform="translate(111.8472,42.0859)"
           id="g52"><path
             id="path54"
             style="fill:#176fc1;fill-opacity:1;fill-rule:nonzero;stroke:none"
             d="m 0,0 c 0,0.187 -0.037,0.502 -0.178,0.742 -0.154,0.272 -0.37,0.395 -0.702,0.395 -0.487,0 -0.75,-0.332 -0.927,-0.695 -0.256,-0.526 -0.379,-1.276 -0.379,-1.778 0,-0.248 0.039,-0.602 0.248,-0.843 0.138,-0.162 0.354,-0.27 0.602,-0.27 0.402,0 0.912,0.24 1.098,1.052 L 0.866,-1.599 C 0.781,-1.884 0.65,-2.162 0.457,-2.433 -0.046,-3.137 -0.641,-3.39 -1.375,-3.39 c -0.85,0 -1.351,0.431 -1.607,0.755 -0.309,0.395 -0.487,0.936 -0.487,1.514 0,0.781 0.264,1.654 0.735,2.25 0.448,0.565 1.074,0.936 1.939,0.936 0.742,0 1.166,-0.294 1.383,-0.518 C 0.928,1.198 1.105,0.619 1.121,0.131 L 0,0" /></g><g
           transform="translate(115.2861,44.0732)"
           id="g56"><path
             id="path58"
             style="fill:#176fc1;fill-opacity:1;fill-rule:nonzero;stroke:none"
             d="m 0,0 -0.347,-2.118 h 0.355 c 0.394,0 0.641,0.071 1.074,0.958 0.232,0.479 0.409,0.804 0.586,0.973 C 1.824,-0.038 1.971,0 2.086,0 H 3.083 C 2.928,-0.108 2.797,-0.247 2.504,-0.735 2.202,-1.237 2.225,-1.237 1.963,-1.668 1.715,-2.079 1.561,-2.211 1.499,-2.265 1.368,-2.373 1.198,-2.435 1.051,-2.465 V -2.496 C 1.36,-2.551 1.561,-2.782 1.654,-2.929 1.786,-3.129 1.839,-3.33 1.885,-3.524 1.956,-3.832 1.986,-4.041 2.032,-4.25 2.157,-4.854 2.295,-5.116 2.426,-5.301 H 1.284 c -0.11,0.008 -0.264,0.07 -0.371,0.486 -0.063,0.248 -0.102,0.541 -0.164,0.951 -0.046,0.332 -0.1,0.556 -0.231,0.679 -0.116,0.108 -0.332,0.163 -0.533,0.163 h -0.48 l -0.37,-2.279 H -2.101 L -1.236,0 H 0" /></g><g
           transform="translate(119.8999,40.0635)"
           id="g60"><path
             id="path62"
             style="fill:#176fc1;fill-opacity:1;fill-rule:nonzero;stroke:none"
             d="m 0,0 c 0.17,-0.302 0.408,-0.427 0.741,-0.427 0.294,0 0.548,0.095 0.78,0.396 0.364,0.464 0.541,1.414 0.541,2.002 0,0.216 -0.031,0.553 -0.17,0.787 C 1.784,2.942 1.552,3.159 1.15,3.159 0.818,3.159 0.563,3.011 0.371,2.765 0.008,2.302 -0.171,1.351 -0.171,0.758 -0.171,0.524 -0.141,0.245 0,0 M 2.596,3.661 C 2.943,3.375 3.346,2.797 3.346,1.829 3.346,1.034 3.058,0.139 2.68,-0.371 2.425,-0.712 1.8,-1.367 0.617,-1.367 c -0.557,0 -1.059,0.145 -1.483,0.586 -0.433,0.449 -0.587,1.005 -0.587,1.662 0,0.711 0.146,1.729 0.904,2.487 0.549,0.547 1.096,0.72 1.777,0.72 0.394,0 0.903,-0.039 1.368,-0.427" /></g><g
           transform="translate(125.3311,41.9551)"
           id="g64"><path
             id="path66"
             style="fill:#176fc1;fill-opacity:1;fill-rule:nonzero;stroke:none"
             d="M 0,0 H 0.92 C 1.113,0 1.383,0.016 1.592,0.194 1.707,0.287 1.8,0.432 1.8,0.641 1.8,1.043 1.46,1.189 1.097,1.189 H 0.194 Z m -0.371,-2.24 h 1.004 c 0.256,0 0.495,0 0.711,0.201 0.139,0.131 0.225,0.301 0.225,0.494 0,0.254 -0.124,0.419 -0.24,0.502 -0.186,0.131 -0.417,0.139 -0.58,0.139 H -0.147 Z M 1.383,2.118 C 1.746,2.118 2.102,2.055 2.387,1.901 2.674,1.739 3.014,1.422 3.014,0.827 3.014,0.379 2.813,0.086 2.635,-0.084 2.45,-0.263 2.194,-0.395 1.94,-0.447 V -0.465 C 2.125,-0.517 2.303,-0.609 2.434,-0.734 2.697,-0.972 2.805,-1.322 2.805,-1.646 2.805,-2.009 2.627,-2.433 2.372,-2.697 1.963,-3.121 1.415,-3.183 0.905,-3.183 h -2.627 l 0.873,5.301 h 2.232" /></g><g
           transform="translate(132.3242,42.0859)"
           id="g68"><path
             id="path70"
             style="fill:#176fc1;fill-opacity:1;fill-rule:nonzero;stroke:none"
             d="m 0,0 c 0,0.187 -0.04,0.502 -0.178,0.742 -0.154,0.272 -0.371,0.395 -0.703,0.395 -0.487,0 -0.749,-0.332 -0.928,-0.695 -0.254,-0.526 -0.378,-1.276 -0.378,-1.778 0,-0.248 0.038,-0.602 0.247,-0.843 0.139,-0.162 0.356,-0.27 0.604,-0.27 0.401,0 0.911,0.24 1.095,1.052 L 0.865,-1.599 C 0.781,-1.884 0.649,-2.162 0.455,-2.433 -0.047,-3.137 -0.641,-3.39 -1.376,-3.39 c -0.849,0 -1.352,0.431 -1.607,0.755 -0.308,0.395 -0.486,0.936 -0.486,1.514 0,0.781 0.261,1.654 0.734,2.25 0.448,0.565 1.073,0.936 1.939,0.936 0.741,0 1.167,-0.294 1.383,-0.518 C 0.927,1.198 1.105,0.619 1.121,0.131 L 0,0" /></g><g
           transform="translate(135.7622,44.0732)"
           id="g72"><path
             id="path74"
             style="fill:#176fc1;fill-opacity:1;fill-rule:nonzero;stroke:none"
             d="m 0,0 -0.348,-2.118 h 0.355 c 0.394,0 0.642,0.071 1.074,0.958 0.233,0.479 0.41,0.804 0.588,0.973 C 1.823,-0.038 1.971,0 2.087,0 H 3.083 C 2.929,-0.108 2.798,-0.247 2.503,-0.735 2.202,-1.237 2.226,-1.237 1.962,-1.668 1.716,-2.079 1.561,-2.211 1.499,-2.265 1.368,-2.373 1.197,-2.435 1.051,-2.465 V -2.496 C 1.36,-2.551 1.561,-2.782 1.653,-2.929 1.785,-3.129 1.839,-3.33 1.886,-3.524 1.955,-3.832 1.985,-4.041 2.032,-4.25 2.155,-4.854 2.295,-5.116 2.427,-5.301 H 1.282 c -0.107,0.008 -0.262,0.07 -0.37,0.486 -0.062,0.248 -0.1,0.541 -0.162,0.951 -0.047,0.332 -0.101,0.556 -0.231,0.679 -0.118,0.108 -0.333,0.163 -0.534,0.163 h -0.48 L -0.866,-5.301 H -2.102 L -1.236,0 H 0" /></g><g
           transform="translate(140.8618,44.0732)"
           id="g76"><path
             id="path78"
             style="fill:#176fc1;fill-opacity:1;fill-rule:nonzero;stroke:none"
             d="m 0,0 -0.464,-2.829 c -0.023,-0.123 -0.077,-0.363 -0.115,-0.486 0.169,0.277 0.215,0.356 0.261,0.408 L 1.7,-0.379 1.769,0 H 3.006 L 2.133,-5.301 H 0.896 l 0.472,2.875 c 0.023,0.161 0.061,0.34 0.1,0.486 C 1.406,-2.047 1.274,-2.272 1.214,-2.342 L -0.804,-4.876 -0.873,-5.301 H -2.11 L -1.237,0 H 0" /></g><g
           transform="translate(146.6499,45.4014)"
           id="g80"><path
             id="path82"
             style="fill:#176fc1;fill-opacity:1;fill-rule:nonzero;stroke:none"
             d="m 0,0 c -0.008,-0.076 0,-0.192 0.107,-0.302 0.071,-0.07 0.194,-0.138 0.395,-0.138 0.115,0 0.269,0.024 0.401,0.138 0.116,0.103 0.155,0.218 0.162,0.302 h 0.95 C 1.939,-0.362 1.73,-0.603 1.498,-0.757 1.205,-0.95 0.803,-1.041 0.431,-1.041 c -0.347,0 -0.787,0.075 -1.043,0.293 C -0.781,-0.61 -0.944,-0.347 -0.936,0 Z m -0.495,-1.328 -0.464,-2.829 c -0.024,-0.123 -0.076,-0.364 -0.115,-0.487 0.17,0.278 0.216,0.357 0.261,0.409 l 2.018,2.528 0.069,0.379 H 2.51 L 1.637,-6.629 H 0.401 l 0.472,2.875 c 0.023,0.161 0.06,0.34 0.099,0.485 C 0.911,-3.375 0.779,-3.601 0.718,-3.67 l -2.017,-2.534 -0.069,-0.425 h -1.238 l 0.875,5.301 h 1.236" /></g><g
           transform="translate(154.6152,40.2559)"
           id="g84"><path
             id="path86"
             style="fill:#176fc1;fill-opacity:1;fill-rule:nonzero;stroke:none"
             d="M 0,0 C 0.496,0.014 0.85,0.147 1.113,0.519 1.291,0.772 1.392,1.158 1.392,1.483 1.392,1.978 1.183,2.24 0.998,2.358 0.85,2.449 0.619,2.502 0.41,2.494 Z M -0.748,2.488 C -1.096,2.488 -1.467,2.319 -1.7,2.103 -1.985,1.83 -2.132,1.414 -2.132,1.035 c 0,-0.379 0.147,-0.611 0.27,-0.742 0.186,-0.201 0.463,-0.301 0.711,-0.285 z M 0.696,3.971 0.595,3.353 C 1.16,3.369 1.855,3.183 2.242,2.674 2.519,2.312 2.566,1.894 2.566,1.506 2.566,1.229 2.527,0.348 1.786,-0.285 1.353,-0.656 0.718,-0.873 -0.1,-0.856 l -0.108,-0.659 h -1.237 l 0.109,0.666 c -0.742,-0.007 -1.205,0.23 -1.485,0.509 -0.254,0.254 -0.486,0.678 -0.486,1.328 0,0.574 0.193,1.391 1.09,1.949 0.448,0.278 0.912,0.416 1.568,0.409 l 0.109,0.625 h 1.236" /></g><g
           transform="translate(159.6538,44.0732)"
           id="g88"><path
             id="path90"
             style="fill:#176fc1;fill-opacity:1;fill-rule:nonzero;stroke:none"
             d="m 0,0 -0.464,-2.829 c -0.024,-0.123 -0.077,-0.363 -0.116,-0.486 0.17,0.277 0.216,0.356 0.263,0.408 L 1.699,-0.379 1.769,0 H 3.006 L 2.133,-5.301 H 0.896 l 0.471,2.875 C 1.39,-2.265 1.429,-2.086 1.468,-1.94 1.406,-2.047 1.275,-2.272 1.212,-2.342 L -0.805,-4.876 -0.873,-5.301 H -2.11 L -1.237,0 H 0" /></g><g
           transform="translate(163.1768,42.627)"
           id="g92"><path
             id="path94"
             style="fill:#176fc1;fill-opacity:1;fill-rule:nonzero;stroke:none"
             d="M 0,0 C 0.084,0.34 0.285,0.812 0.788,1.146 1.12,1.362 1.592,1.524 2.264,1.524 2.836,1.524 3.191,1.408 3.431,1.268 3.91,0.981 4.041,0.565 4.041,0.225 4.041,-0.177 3.879,-0.486 3.654,-0.711 3.554,-0.81 3.338,-0.996 2.998,-1.09 v -0.014 c 0.201,-0.046 0.433,-0.156 0.588,-0.325 0.115,-0.123 0.27,-0.356 0.27,-0.748 0,-0.487 -0.225,-1.059 -0.804,-1.415 -0.48,-0.294 -1.059,-0.339 -1.538,-0.339 -0.549,0 -1.113,0.077 -1.545,0.541 -0.239,0.261 -0.395,0.609 -0.441,0.965 l 1.059,0.177 c 0.062,-0.24 0.192,-0.394 0.247,-0.455 0.232,-0.248 0.494,-0.287 0.75,-0.287 0.463,0 0.695,0.17 0.779,0.24 0.186,0.155 0.256,0.364 0.256,0.533 0,0.184 -0.07,0.364 -0.185,0.463 -0.194,0.17 -0.526,0.17 -0.696,0.17 H 1.151 l 0.139,0.905 h 0.634 c 0.232,0 0.533,0.068 0.695,0.193 0.131,0.101 0.247,0.277 0.247,0.533 0,0.162 -0.061,0.301 -0.2,0.41 C 2.511,0.572 2.341,0.596 2.164,0.596 1.901,0.596 1.661,0.557 1.414,0.371 1.274,0.272 1.112,0.094 1.02,-0.185 L 0,0" /></g><g
           transform="translate(169.7139,44.0732)"
           id="g96"><path
             id="path98"
             style="fill:#176fc1;fill-opacity:1;fill-rule:nonzero;stroke:none"
             d="m 0,0 -0.464,-2.829 c -0.023,-0.123 -0.077,-0.363 -0.116,-0.486 0.17,0.277 0.217,0.356 0.263,0.408 L 1.699,-0.379 1.77,0 H 3.004 L 2.133,-5.301 H 0.897 l 0.47,2.875 c 0.024,0.161 0.061,0.34 0.1,0.486 C 1.406,-2.047 1.275,-2.272 1.213,-2.342 L -0.805,-4.876 -0.873,-5.301 H -2.11 L -1.236,0 H 0" /></g><g
           transform="translate(174.9971,44.0732)"
           id="g100"><path
             id="path102"
             style="fill:#176fc1;fill-opacity:1;fill-rule:nonzero;stroke:none"
             d="m 0,0 -0.345,-2.118 h 0.353 c 0.395,0 0.643,0.071 1.076,0.958 0.231,0.479 0.408,0.804 0.586,0.973 C 1.824,-0.038 1.973,0 2.088,0 H 3.084 C 2.93,-0.108 2.799,-0.247 2.506,-0.735 2.203,-1.237 2.227,-1.237 1.963,-1.668 1.717,-2.079 1.563,-2.211 1.5,-2.265 1.369,-2.373 1.199,-2.435 1.053,-2.465 V -2.496 C 1.361,-2.551 1.563,-2.782 1.654,-2.929 1.785,-3.129 1.84,-3.33 1.887,-3.524 1.955,-3.832 1.986,-4.041 2.033,-4.25 2.156,-4.854 2.297,-5.116 2.428,-5.301 H 1.286 c -0.11,0.008 -0.264,0.07 -0.373,0.486 -0.061,0.248 -0.1,0.541 -0.163,0.951 -0.045,0.332 -0.099,0.556 -0.23,0.679 -0.117,0.108 -0.332,0.163 -0.533,0.163 H -0.494 L -0.863,-5.301 H -2.099 L -1.234,0 H 0" /></g><g
           transform="translate(179.6113,40.0635)"
           id="g104"><path
             id="path106"
             style="fill:#176fc1;fill-opacity:1;fill-rule:nonzero;stroke:none"
             d="m 0,0 c 0.171,-0.302 0.408,-0.427 0.74,-0.427 0.293,0 0.55,0.095 0.781,0.396 0.365,0.464 0.542,1.414 0.542,2.002 0,0.216 -0.032,0.553 -0.172,0.787 C 1.783,2.942 1.553,3.159 1.15,3.159 0.818,3.159 0.562,3.011 0.372,2.765 0.009,2.302 -0.171,1.351 -0.171,0.758 -0.171,0.524 -0.14,0.245 0,0 M 2.597,3.661 C 2.943,3.375 3.347,2.797 3.347,1.829 3.347,1.034 3.06,0.139 2.681,-0.371 2.425,-0.712 1.8,-1.367 0.617,-1.367 c -0.556,0 -1.057,0.145 -1.483,0.586 -0.432,0.449 -0.586,1.005 -0.586,1.662 0,0.711 0.146,1.729 0.901,2.487 0.551,0.547 1.099,0.72 1.78,0.72 0.393,0 0.903,-0.039 1.368,-0.427" /></g><g
           transform="translate(185.0117,41.3066)"
           id="g108"><path
             id="path110"
             style="fill:#176fc1;fill-opacity:1;fill-rule:nonzero;stroke:none"
             d="m 0,0 h -1.832 l -0.146,-0.928 h 1.832 z" /></g><g
           transform="translate(189.2471,44.0732)"
           id="g112"><path
             id="path114"
             style="fill:#176fc1;fill-opacity:1;fill-rule:nonzero;stroke:none"
             d="M 0,0 -0.163,-0.974 H -1.422 L -2.133,-5.301 H -3.37 l 0.711,4.327 H -3.918 L -3.756,0 Z" /></g><g
           transform="translate(193.3271,43.0996)"
           id="g116"><path
             id="path118"
             style="fill:#176fc1;fill-opacity:1;fill-rule:nonzero;stroke:none"
             d="m 0,0 h -2.496 l -0.187,-1.145 h 2 l -0.161,-0.904 h -1.994 l -0.2,-1.289 h 2.517 l -0.162,-0.989 h -3.761 l 0.873,5.301 H 0.17 Z" /></g><g
           transform="translate(196.417,41.6152)"
           id="g120"><path
             id="path122"
             style="fill:#176fc1;fill-opacity:1;fill-rule:nonzero;stroke:none"
             d="m 0,0 1.298,-2.843 h -1.429 l -0.828,1.9 -1.43,-1.9 h -1.182 l 2.156,2.75 -1.175,2.551 h 1.429 l 0.688,-1.647 1.238,1.647 h 1.144 z" /></g><g
           transform="translate(200.3506,44.0732)"
           id="g124"><path
             id="path126"
             style="fill:#176fc1;fill-opacity:1;fill-rule:nonzero;stroke:none"
             d="M 0,0 -0.342,-2.071 H 1.406 L 1.737,0 H 2.976 L 2.108,-5.301 H 0.873 l 0.364,2.256 H -0.504 L -0.866,-5.301 H -2.102 L -1.235,0 Z" /></g><g
           transform="translate(205.6133,44.0732)"
           id="g128"><path
             id="path130"
             style="fill:#176fc1;fill-opacity:1;fill-rule:nonzero;stroke:none"
             d="m 0,0 -0.465,-2.829 c -0.021,-0.123 -0.076,-0.363 -0.115,-0.486 0.17,0.277 0.217,0.356 0.261,0.408 L 1.698,-0.379 1.767,0 H 3.006 L 2.131,-5.301 H 0.896 l 0.471,2.875 c 0.023,0.161 0.063,0.34 0.1,0.486 C 1.405,-2.047 1.272,-2.272 1.213,-2.342 L -0.806,-4.876 -0.875,-5.301 H -2.11 L -1.236,0 H 0" /></g><g
           transform="translate(210.6895,44.0732)"
           id="g132"><path
             id="path134"
             style="fill:#176fc1;fill-opacity:1;fill-rule:nonzero;stroke:none"
             d="m 0,0 -0.24,-1.438 c -0.017,-0.092 -0.032,-0.185 -0.032,-0.277 0,-0.086 0.007,-0.218 0.093,-0.317 0.14,-0.17 0.396,-0.188 0.625,-0.188 0.241,0 0.574,0.032 0.842,0.063 L 1.651,0 H 2.89 L 2.016,-5.301 H 0.78 l 0.355,2.193 c -0.301,-0.03 -0.726,-0.053 -1.074,-0.053 -0.326,0 -0.926,0.023 -1.25,0.316 -0.156,0.139 -0.318,0.403 -0.318,0.858 0,0.194 0.029,0.386 0.062,0.588 L -1.205,0 H 0" /></g><g
           transform="translate(218.1992,43.0996)"
           id="g136"><path
             id="path138"
             style="fill:#176fc1;fill-opacity:1;fill-rule:nonzero;stroke:none"
             d="m 0,0 h -2.496 l -0.187,-1.145 h 2.002 l -0.161,-0.904 h -1.994 l -0.2,-1.289 h 2.517 l -0.162,-0.989 h -3.762 l 0.874,5.301 H 0.17 Z" /></g><g
           transform="translate(221.9229,42.0859)"
           id="g140"><path
             id="path142"
             style="fill:#176fc1;fill-opacity:1;fill-rule:nonzero;stroke:none"
             d="m 0,0 c 0,0.187 -0.039,0.502 -0.177,0.742 -0.155,0.272 -0.372,0.395 -0.703,0.395 -0.487,0 -0.749,-0.332 -0.928,-0.695 -0.254,-0.526 -0.379,-1.276 -0.379,-1.778 0,-0.248 0.04,-0.602 0.249,-0.843 0.138,-0.162 0.354,-0.27 0.602,-0.27 0.403,0 0.91,0.24 1.096,1.052 L 0.866,-1.599 C 0.781,-1.884 0.651,-2.162 0.456,-2.433 -0.045,-3.137 -0.64,-3.39 -1.375,-3.39 c -0.849,0 -1.351,0.431 -1.606,0.755 -0.31,0.395 -0.487,0.936 -0.487,1.514 0,0.781 0.261,1.654 0.735,2.25 0.446,0.565 1.071,0.936 1.936,0.936 0.743,0 1.168,-0.294 1.385,-0.518 C 0.928,1.198 1.106,0.619 1.121,0.131 L 0,0" /></g><g
           transform="translate(225.3613,44.0732)"
           id="g144"><path
             id="path146"
             style="fill:#176fc1;fill-opacity:1;fill-rule:nonzero;stroke:none"
             d="M 0,0 -0.347,-2.118 H 0.01 c 0.391,0 0.639,0.071 1.072,0.958 0.231,0.479 0.409,0.804 0.588,0.973 C 1.823,-0.038 1.972,0 2.088,0 H 3.084 C 2.929,-0.108 2.797,-0.247 2.504,-0.735 2.203,-1.237 2.226,-1.237 1.965,-1.668 1.717,-2.079 1.562,-2.211 1.5,-2.265 1.369,-2.373 1.198,-2.435 1.051,-2.465 V -2.496 C 1.36,-2.551 1.562,-2.782 1.653,-2.929 1.785,-3.129 1.84,-3.33 1.887,-3.524 1.955,-3.832 1.985,-4.041 2.032,-4.25 2.155,-4.854 2.297,-5.116 2.428,-5.301 H 1.282 c -0.106,0.008 -0.261,0.07 -0.368,0.486 -0.065,0.248 -0.102,0.541 -0.164,0.951 -0.045,0.332 -0.101,0.556 -0.233,0.679 -0.116,0.108 -0.33,0.163 -0.532,0.163 H -0.494 L -0.865,-5.301 H -2.101 L -1.235,0 H 0" /></g><g
           transform="translate(230.4619,44.0732)"
           id="g148"><path
             id="path150"
             style="fill:#176fc1;fill-opacity:1;fill-rule:nonzero;stroke:none"
             d="m 0,0 -0.465,-2.829 c -0.021,-0.123 -0.075,-0.363 -0.115,-0.486 0.17,0.277 0.217,0.356 0.262,0.408 L 1.7,-0.379 1.769,0 H 3.006 L 2.131,-5.301 H 0.897 l 0.471,2.875 C 1.391,-2.265 1.43,-2.086 1.467,-1.94 1.405,-2.047 1.274,-2.272 1.213,-2.342 L -0.804,-4.876 -0.875,-5.301 H -2.109 L -1.238,0 H 0" /></g><g
           transform="translate(236.25,45.4014)"
           id="g152"><path
             id="path154"
             style="fill:#176fc1;fill-opacity:1;fill-rule:nonzero;stroke:none"
             d="m 0,0 c -0.008,-0.076 0,-0.192 0.107,-0.302 0.07,-0.07 0.193,-0.138 0.395,-0.138 0.115,0 0.269,0.024 0.4,0.138 C 1.019,-0.199 1.058,-0.084 1.064,0 H 2.015 C 1.939,-0.362 1.73,-0.603 1.498,-0.757 1.205,-0.95 0.802,-1.041 0.431,-1.041 c -0.348,0 -0.787,0.075 -1.043,0.293 -0.17,0.138 -0.332,0.401 -0.324,0.748 z m -0.495,-1.328 -0.464,-2.829 c -0.024,-0.123 -0.077,-0.364 -0.116,-0.487 0.17,0.278 0.217,0.357 0.262,0.409 l 2.018,2.528 0.068,0.379 H 2.511 L 1.636,-6.629 H 0.4 l 0.473,2.875 c 0.021,0.161 0.06,0.34 0.099,0.485 C 0.912,-3.375 0.779,-3.601 0.718,-3.67 L -1.299,-6.204 -1.37,-6.629 h -1.236 l 0.875,5.301 h 1.236" /></g><g
           transform="translate(242.8467,44.0732)"
           id="g156"><path
             id="path158"
             style="fill:#176fc1;fill-opacity:1;fill-rule:nonzero;stroke:none"
             d="m 0,0 -0.463,-2.829 c -0.022,-0.123 -0.078,-0.363 -0.117,-0.486 0.17,0.277 0.218,0.356 0.265,0.408 L 1.699,-0.379 1.771,0 H 3.006 L 2.134,-5.301 H 0.897 l 0.472,2.875 C 1.392,-2.265 1.431,-2.086 1.47,-1.94 1.406,-2.047 1.276,-2.272 1.213,-2.342 l -2.016,-2.534 -0.07,-0.425 H -2.108 L -1.235,0 H 0" /></g><g
           transform="translate(248.1318,44.0732)"
           id="g160"><path
             id="path162"
             style="fill:#176fc1;fill-opacity:1;fill-rule:nonzero;stroke:none"
             d="M 0,0 -0.339,-2.071 H 1.407 L 1.739,0 H 2.976 L 2.11,-5.301 H 0.873 l 0.364,2.256 H -0.502 L -0.865,-5.301 H -2.101 L -1.235,0 Z" /></g><g
           transform="translate(254.917,42.0859)"
           id="g164"><path
             id="path166"
             style="fill:#176fc1;fill-opacity:1;fill-rule:nonzero;stroke:none"
             d="m 0,0 c 0,0.187 -0.038,0.502 -0.177,0.742 -0.155,0.272 -0.371,0.395 -0.703,0.395 -0.489,0 -0.75,-0.332 -0.928,-0.695 -0.256,-0.526 -0.379,-1.276 -0.379,-1.778 0,-0.248 0.039,-0.602 0.248,-0.843 0.139,-0.162 0.355,-0.27 0.602,-0.27 0.402,0 0.912,0.24 1.097,1.052 L 0.866,-1.599 C 0.78,-1.884 0.649,-2.162 0.456,-2.433 -0.046,-3.137 -0.642,-3.39 -1.376,-3.39 c -0.85,0 -1.352,0.431 -1.606,0.755 -0.311,0.395 -0.486,0.936 -0.486,1.514 0,0.781 0.262,1.654 0.732,2.25 0.449,0.565 1.074,0.936 1.94,0.936 0.742,0 1.166,-0.294 1.382,-0.518 C 0.928,1.198 1.104,0.619 1.12,0.131 L 0,0" /></g><g
           transform="translate(260.3574,44.0732)"
           id="g168"><path
             id="path170"
             style="fill:#176fc1;fill-opacity:1;fill-rule:nonzero;stroke:none"
             d="m 0,0 -0.162,-0.974 h -1.261 l -0.711,-4.327 h -1.235 l 0.711,4.327 h -1.26 L -3.757,0 Z" /></g><g
           transform="translate(262.1025,44.0732)"
           id="g172"><path
             id="path174"
             style="fill:#176fc1;fill-opacity:1;fill-rule:nonzero;stroke:none"
             d="m 0,0 -0.465,-2.829 c -0.02,-0.123 -0.075,-0.363 -0.114,-0.486 0.17,0.277 0.217,0.356 0.264,0.408 L 1.699,-0.379 1.771,0 H 3.007 L 2.134,-5.301 H 0.897 l 0.47,2.875 C 1.392,-2.265 1.431,-2.086 1.47,-1.94 1.406,-2.047 1.274,-2.272 1.214,-2.342 L -0.805,-4.876 -0.872,-5.301 H -2.108 L -1.235,0 H 0" /></g><g
           transform="translate(269.3896,44.0732)"
           id="g176"><path
             id="path178"
             style="fill:#176fc1;fill-opacity:1;fill-rule:nonzero;stroke:none"
             d="m 0,0 -0.164,-0.974 h -1.258 l -0.711,-4.327 h -1.235 l 0.711,4.327 H -3.918 L -3.756,0 Z" /></g><g
           transform="translate(270.7422,44.0732)"
           id="g180"><path
             id="path182"
             style="fill:#176fc1;fill-opacity:1;fill-rule:nonzero;stroke:none"
             d="M 0,0 0.75,-2.536 H 0.771 L 2.192,0 H 3.338 L 1.11,-3.817 c -0.438,-0.75 -0.677,-1.006 -0.817,-1.136 -0.371,-0.333 -0.75,-0.424 -1.213,-0.424 -0.238,0 -0.457,0.028 -0.649,0.076 l 0.155,0.943 c 0.216,-0.062 0.392,-0.071 0.47,-0.071 0.17,0 0.395,0.032 0.588,0.186 0.115,0.101 0.216,0.241 0.27,0.372 L -1.36,0 H 0" /></g><g
           transform="translate(277.6953,44.0732)"
           id="g184"><path
             id="path186"
             style="fill:#176fc1;fill-opacity:1;fill-rule:nonzero;stroke:none"
             d="m 0,0 -0.162,-0.974 h -1.26 l -0.709,-4.327 h -1.238 l 0.713,4.327 h -1.26 L -3.754,0 Z" /></g></g></g></g></svg>
