<svg version="1.2" xmlns="http://www.w3.org/2000/svg" viewBox="0 0 378 260" width="378" height="260">
	<style>
		.s0 { opacity: .98;fill: #761ebf } 
	</style>
	<g id="Background">
		<path id="Path 0" class="s0" d="m148 62.5v59.5h24l0.5-69.32 19.15 68.82 28.35 0.5v-119h-24.03l-0.47 67.5-19-67.53-28.5 0.03z"/>
		<path id="Path 1" fill-rule="evenodd" class="s0" d="m102.48 3c17.35 0 17.52 0.02 18.03 2.25 0.29 1.24 5.23 27.45 11 58.25 5.76 30.8 10.48 56.56 10.48 57.25 0.01 0.94-3.35 1.25-13.49 1.25-13.2 0-13.51-0.05-13.96-2.25-0.25-1.24-1.04-6.08-3.04-19.25l-20.5-0.5-1.03 8.25c-0.57 4.54-1.25 9.49-1.97 13.75h-12.5c-10.44 0-12.5-0.25-12.5-1.5 0-0.83 4.73-27.04 10.52-58.25 5.79-31.21 10.73-57.31 10.98-58 0.34-0.94 4.86-1.25 17.98-1.25zm-4.48 50.5c-1.66 11.55-3.01 21.79-3.01 22.75 0.01 1.49 0.99 1.75 6.51 1.75 4.53 0 6.5-0.38 6.51-1.25 0-0.69-1.37-10.92-3.05-22.75-1.68-11.83-3.22-21.95-3.43-22.5q-0.37-1-0.44 0c-0.04 0.55-1.43 10.45-3.09 22z"/>
		<path id="Path 2" class="s0" d="m1.03 4.22c-0.01 0.71 5.26 17.48 11.72 37.28l11.75 36 1 44h26l0.57-42c18.58-57.35 23.86-74.58 23.72-75.28-0.19-0.98-3.31-1.21-13.23-1l-12.98 0.28c-8.12 32.55-10.53 41.55-10.6 41-0.06-0.55-2.22-10-4.8-21l-4.68-20c-25.23-0.49-28.45-0.27-28.47 0.72z"/>
		<path id="Path 3" fill-rule="evenodd" class="s0" d="m339.5 1.07c3.33-0.06 8.41 0.68 11.42 1.66 3.1 1.01 7.34 3.48 9.91 5.77 2.47 2.2 5.48 5.58 6.69 7.5 1.21 1.93 3.34 6.65 4.74 10.5 1.4 3.85 3.09 10.83 3.77 15.5 0.81 5.53 1.06 14.61 0.71 26-0.41 13.9-0.97 19.04-2.7 25-1.21 4.13-3.62 10.15-5.36 13.38-1.75 3.24-4.98 7.54-7.18 9.57-2.2 2.03-6.7 4.71-10 5.97-4.81 1.82-7.39 2.19-13 1.84-3.85-0.24-9.02-1.32-11.5-2.41-2.48-1.08-6.45-3.74-8.84-5.91-2.39-2.17-5.8-6.86-7.59-10.44-1.79-3.58-4.12-10.1-5.16-14.5-1.55-6.48-1.91-11.8-1.91-28 0-15.57 0.39-21.66 1.76-27.5 0.96-4.13 3.02-10.2 4.56-13.5 1.55-3.3 4.58-7.97 6.74-10.37 2.17-2.41 5.73-5.29 7.91-6.41 2.18-1.12 5.11-2.38 6.5-2.79 1.39-0.42 5.23-0.81 8.53-0.86zm-5.97 27.18c-0.84 2.06-1.98 8.59-2.53 14.5-0.55 5.91-0.99 15.02-0.97 20.25 0.01 5.22 0.44 13.78 0.94 19 0.51 5.22 1.51 11.26 2.23 13.4 0.71 2.15 2.42 4.76 3.8 5.81 2.19 1.66 2.85 1.74 5.28 0.6 1.67-0.79 3.36-2.8 4.25-5.06 0.81-2.06 1.92-7.69 2.46-12.5 0.55-4.81 0.99-14.6 0.99-21.75 0-7.15-0.44-16.94-0.99-21.75-0.54-4.81-1.78-10.61-2.74-12.89-0.96-2.27-2.54-4.52-3.5-5-0.96-0.47-2.32-0.86-3.03-0.86-0.7 0-2.03 0.56-2.96 1.25-0.93 0.69-2.38 2.94-3.23 5z"/>
		<path id="Path 4" class="s0" d="m253.97 1.93c-1.39 0.41-4.32 1.66-6.5 2.77-2.18 1.12-5.77 4.03-7.97 6.48-2.2 2.45-5.24 7.01-6.75 10.14-1.51 3.12-3.42 8.49-4.25 11.93-0.82 3.44-1.97 11.65-2.55 18.25-0.76 8.55-0.75 15.16 0.03 23 0.6 6.05 1.81 13.92 2.68 17.5 0.88 3.58 2.8 9.2 4.27 12.5 1.47 3.3 4.46 7.97 6.63 10.37 2.16 2.41 5.51 5.17 7.44 6.13 1.93 0.97 5.3 2.07 7.5 2.44 2.3 0.39 6.12 0.15 9-0.57 3.62-0.91 6.18-2.45 9.25-5.56l4.25-4.31 1 9h19v-68l-35.5 0.5-0.5 22.5h13c-0.98 9.69-1.9 14.3-2.68 16.5-0.78 2.2-2.41 5.02-3.62 6.28-1.21 1.25-3.21 2.26-4.45 2.25-1.24-0.02-3.15-0.93-4.25-2.03-1.1-1.1-2.71-4.36-3.59-7.25-1.09-3.6-1.75-11.06-2.11-23.75-0.28-10.17-0.06-22.55 0.51-27.5 0.56-4.95 1.72-10.8 2.57-13 0.96-2.49 2.6-4.51 4.33-5.34 2.1-1.01 3.35-1.07 5.04-0.25 1.26 0.61 3.56 3.84 5.22 7.34 1.63 3.44 2.98 6.81 3 7.5 0.02 0.69 0.48 1.48 1.03 1.75 0.55 0.27 5.73-1.3 11.5-3.5 9.62-3.67 10.45-4.19 9.94-6.25-0.31-1.24-2.07-5.4-3.9-9.25-2.31-4.87-4.95-8.46-8.68-11.82-3.52-3.17-7.07-5.31-10.36-6.26-2.75-0.79-7.7-1.4-11-1.34-3.3 0.05-7.14 0.43-8.53 0.85z"/>
		<path id="Path 5" fill-rule="evenodd" class="s0" d="m25.14 140.86l22.68 0.32c22.25 0.31 22.77 0.37 27.68 2.95 2.75 1.44 6.77 4.59 8.94 7 2.17 2.4 5.09 6.84 6.5 9.87 2.28 4.9 2.56 6.75 2.55 17-0.02 10.45-0.27 12.03-2.75 17.25-1.51 3.16-4.88 7.81-7.49 10.32-2.94 2.82-6.85 5.33-10.25 6.56-3.03 1.1-8.98 2.31-20.98 3.37l-0.52 44-26.5 0.5zm25.86 53.14c7.7 0.01 10.43-0.66 11.94-1.75 1.34-0.96 3.03-3.22 3.75-5 0.72-1.79 1.31-6.18 1.31-9.75 0-4.14-0.63-7.83-1.75-10.14-0.96-2-2.98-4.25-4.5-5-1.51-0.75-4.55-1.36-6.75-1.36h-4z"/>
		<path id="Path 6" class="s0" d="m99 200.5v59.5l53.5-0.5 0.5-22.5h-27v-96h-27z"/>
		<path id="Path 7" fill-rule="evenodd" class="s0" d="m179.36 141h17.82c17.67 0 17.82 0.02 18.31 2.25 0.28 1.24 4.53 23.85 9.46 50.25 4.94 26.4 9.66 51.6 10.51 56 0.85 4.4 1.54 8.56 1.54 9.25 0 0.95-3.28 1.19-27.46 0.75l-3.04-21-20.5-0.5-1.03 8.25c-0.57 4.54-1.25 9.49-1.97 13.75l-12.75-0.25c-7.78-0.15-12.7-0.64-12.62-1.25 0.07-0.55 4.99-27.21 10.93-59.25zm12.83 55.32c-1.48 10.35-2.46 19.02-2.19 19.28 0.28 0.25 3.31 0.44 6.75 0.43 5.83-0.03 6.25-0.18 6.18-2.28-0.03-1.24-1.54-11.93-3.34-23.75-2.85-18.66-3.38-20.91-4-17-0.39 2.47-1.92 12.97-3.4 23.32z"/>
		<path id="Path 8" class="s0" d="m223.02 142.25c0.01 0.69 2.9 10.03 6.42 20.75 3.52 10.72 8.8 26.7 11.73 35.5l5.32 16 1.01 45 26.5 0.5 0.01-41.5c18.78-58.13 24.4-75.56 24.61-76.25 0.29-0.97-2.74-1.19-13.34-1l-13.71 0.25c-8.02 32.55-10.4 41.66-10.46 41.25-0.06-0.41-2.13-9.75-4.61-20.75-2.48-11-4.5-20.22-4.5-20.5 0-0.28-6.53-0.5-14.5-0.5-10.94 0-14.49 0.31-14.48 1.25z"/>
	</g>
</svg>
